<svg width="24" height="24" xmlns="http://www.w3.org/2000/svg">

 <g>
  <title>background</title>
  <rect fill="none" id="canvas_background" height="402" width="582" y="-1" x="-1"/>
 </g>
 <g>
  <title>Layer 1</title>
  <path stroke="#fcfcfc" fill="#ffffff" id="add" d="m12,1c-6.1,0 -11,4.9 -11,11s4.9,11 11,11s11,-4.9 11,-11s-4.9,-11 -11,-11zm5,13l-3,0l0,3c0,1.1 -0.9,2 -2,2s-2,-0.9 -2,-2l0,-3l-3,0c-1.1,0 -2,-0.9 -2,-2c0,-1.1 0.9,-2 2,-2l3,0l0,-3c0,-1.1 0.9,-2 2,-2s2,0.9 2,2l0,3l3,0c1.1,0 2,0.9 2,2c0,1.1 -0.9,2 -2,2z"/>
 </g>
</svg>